<?xml version="1.0" standalone="no"?><!DOCTYPE svg PUBLIC "-//W3C//DTD SVG 1.1//EN" "http://www.w3.org/Graphics/SVG/1.1/DTD/svg11.dtd"><svg t="1549452402442" class="icon" style="" viewBox="0 0 1190 1024" version="1.1" xmlns="http://www.w3.org/2000/svg" p-id="32864" xmlns:xlink="http://www.w3.org/1999/xlink" width="232.421875" height="200"><defs><style type="text/css"></style></defs><path d="M1019.83566531 663.83477699V240.35176499a165.436376 165.436376 0 0 0-165.436376-165.436375h-528.714191a165.436376 165.436376 0 0 0-165.436375 165.436375v528.714191a165.265823 165.265823 0 0 0 165.436375 165.265823h528.714191a165.436376 165.436376 0 0 0 162.878081-136.442372c-44.002665-18.760826-233.998668-100.967355-333.08994-148.210526-75.38441 91.245836-153.497668 145.993338-272.884743 145.993338s-198.694204-72.314457-189.143238-162.025317c6.31046-59.011326 46.560959-155.032645 221.718854-138.489007 92.439707 8.698201 134.736842 25.924051 210.291805 51.165889a594.547635 594.547635 0 0 0 47.754831-116.828781H367.98223431v-33.598934h165.265823v-59.011325H331.65445231v-37.009994h201.593605v-85.276482a17.055296 17.055296 0 0 1 17.055296-13.473684h82.718188v99.261825h214.726182v36.498335H632.68043531v59.693537h175.328448a671.467022 671.467022 0 0 1-71.120587 178.568954c51.165889 18.41972 282.947368 89.369753 282.947369 89.369754z" fill="#BBDCFF" p-id="32865"></path><path d="M397.82900331 739.90139899c-125.697535 0-145.652232-79.477682-139.000667-112.564957s42.979347-76.066622 112.906063-76.066622c80.330446 0 152.303797 20.636909 238.774151 62.592938-60.546302 78.966023-135.077948 126.038641-212.508994 126.038641z" fill="#FFD300" p-id="32866"></path><path d="M721.87963531 579.92271799l11.597602 4.263824c51.165889 18.249167 272.884744 86.470353 283.288474 89.369754l13.303132 4.093271V240.35176499A175.840107 175.840107 0 0 0 854.39928931 63.99999999h-528.714191a175.840107 175.840107 0 0 0-175.669553 175.669554v528.71419a175.840107 175.840107 0 0 0 175.669553 175.499001h528.714191a175.328448 175.328448 0 0 0 172.940706-144.628914l1.364424-8.01599-7.504331-3.240506c-38.033311-17.055296-232.97535-100.455696-332.578281-148.039973l-7.163224-3.581612-5.116589 6.310459c-83.4004 100.967355-160.319787 142.241173-265.380413 142.241173a196.135909 196.135909 0 0 1-147.528315-55.77082 119.387075 119.387075 0 0 1-31.893404-94.486342c4.775483-44.514324 34.110593-145.993338 210.974017-129.4497a694.662225 694.662225 0 0 1 181.638908 41.614923l26.265156 8.698201 8.186543 2.728848 3.922718-7.504331a605.633578 605.633578 0 0 0 48.778148-119.387075l3.752165-12.962025H378.21541231V405.78814099h165.265822v-80.159893H341.88763031v-15.861426h201.593604V215.10992699a5.969354 5.969354 0 0 1 6.481013-4.263824h72.48501v99.261825h215.067289v15.861426H622.44725731v80.159893h171.917388a661.745503 661.745503 0 0 1-66.856762 163.219187z m96.02132-181.638907l3.240506-12.62092H642.91361331v-39.227181h215.067288v-56.794138H642.91361331V190.37974699h-92.951366a26.265157 26.265157 0 0 0-26.776815 22.342438v76.919387H321.42127431v56.794138h201.593605v39.227181h-165.265823v53.553631H688.28070131a580.732845 580.732845 0 0 1-38.886076 94.145237l-18.078614-5.969354a712.058628 712.058628 0 0 0-186.243837-42.467688C250.81234731 466.50499699 217.38396631 581.96935399 211.92627131 632.45303099a141.558961 141.558961 0 0 0 36.668887 110.688874 216.943371 216.943371 0 0 0 162.878082 63.616256c108.301133 0 191.189873-42.979347 275.954697-143.605596 96.191872 45.537642 268.279813 119.387075 318.592938 141.729514a154.862092 154.862092 0 0 1-151.109927 119.387075h-528.714191a155.373751 155.373751 0 0 1-155.203197-155.032645v-528.714191a155.373751 155.373751 0 0 1 155.203197-155.203197h528.714191a155.373751 155.373751 0 0 1 155.203198 155.203197v409.327116c-46.390406-14.326449-201.081945-61.910726-257.70553-81.183211a684.087941 684.087941 0 0 0 65.492339-170.382412z m-446.166556 143.26449c-69.58561 0-114.611592 42.467688-122.968688 85.276482a96.703531 96.703531 0 0 0 21.83078 76.748835c17.908061 21.830779 54.406396 47.925383 127.232512 47.925383 77.942705 0 156.226516-46.219853 220.695536-129.961359l7.50433-10.062625-11.256495-5.457695c-91.416389-45.878748-164.242505-64.469021-243.037975-64.469021z m26.094604 187.608261c-51.165889 0-89.881412-13.985343-111.541639-40.421052a77.260493 77.260493 0 0 1-17.055297-59.864091c5.457695-27.288474 37.351099-68.221186 102.331779-68.221186a500.572951 500.572951 0 0 1 222.571619 56.111926c-58.499667 73.167222-127.914724 112.394404-196.306462 112.394403z" fill="#3989FF" p-id="32867"></path></svg>